# xmcd CD database file
#
# Track frame offsets:
#	150
#	13114
#	25876
#	40065
#	58477
#	72061
#	93055
#	105337
#	119950
#	135772
#	147442
#	161137
#	182038
#	198155
#	207737
#	218408
#	231573
#	242184
#	251885
#	262577
#	275808
#	292253
#	303477
#	314919
#
# Disc length: 4405 seconds
#
# Revision: 0
# Processed by: cddbd v1.5.2PL0 Copyright (c) Steve Scherf et al.
# Submitted via: CDex 2.18
#
DISCID=79113318
DTITLE=Tony Bennett - Swings The Great American Songbook CD1
DYEAR=1900
DGENRE=Jazz
TTITLE0=I Left My Heart In San Francisco
TTITLE1=Let's Face The Music And Dance
TTITLE2=I Get A Kick Out Of You
TTITLE3=Over The Rainbow
TTITLE4=It Had To Be You
TTITLE5=I've Got The World On A String
TTITLE6=Put On A Happy Face
TTITLE7=Lullaby Of Broadway
TTITLE8=These Foolish Things
TTITLE9=Love Letters
TTITLE10=Blue Velvet
TTITLE11=Let's Fall In Love
TTITLE12=Autumn Leaves
TTITLE13=Let There Be Love
TTITLE14=My Baby Just Cares For Me
TTITLE15=Old Devil Moon
TTITLE16=Anything Goes
TTITLE17=Chicago
TTITLE18=Climb Ev'ry Mountain
TTITLE19=Smile
TTITLE20=Tenderly
TTITLE21=Stella By Starlight
TTITLE22=Dancing In The Dark
TTITLE23=Begin The Bequine
EXTD=
EXTT0=
EXTT1=
EXTT2=
EXTT3=
EXTT4=
EXTT5=
EXTT6=
EXTT7=
EXTT8=
EXTT9=
EXTT10=
EXTT11=
EXTT12=
EXTT13=
EXTT14=
EXTT15=
EXTT16=
EXTT17=
EXTT18=
EXTT19=
EXTT20=
EXTT21=
EXTT22=
EXTT23=
PLAYORDER=
